<!-- Generated by scripts/readme-diagrams.mjs; edit labels.json and the shared renderer. -->
<svg xmlns="http://www.w3.org/2000/svg" width="1200" height="720" viewBox="0 0 1200 720" role="img" aria-labelledby="title description" xml:lang="zh-CN">
<title id="title">从应用声明到业务执行</title><desc id="description">应用声明经过编译器生成产物。运行时，Elysia 宿主消费编译后的模块并调用应用拥有的服务。宿主仍需安装 Elysia，业务模块无需导入原生 Elysia 类型。</desc>
<defs><marker id="arrow" markerWidth="8" markerHeight="8" refX="7" refY="4" orient="auto"><path d="M0 0 L8 4 L0 8 Z" fill="#526579"/></marker></defs>
<style>text{font-family:Arial,"Noto Sans CJK SC","Microsoft YaHei",sans-serif;fill:#162B40}.title{font-size:34px;font-weight:700}.subtitle{font-size:21px;fill:#526579}.heading{font-size:23px;font-weight:700}.body{font-size:20px;fill:#334C63}.lane{font-size:16px;font-weight:700;fill:#37675F;letter-spacing:1px}</style>
<rect width="1200" height="720" fill="#FFFFFF"/>
<text x="48" y="40" class="lane">SUPACLOUD</text>
<text x="48" y="86" class="title">从应用声明到业务执行</text>
<text x="48" y="124" class="subtitle">静态装配与 HTTP 托管各自承担明确职责。</text>
<text x="48" y="168" class="lane">编译时</text>
<text x="48" y="414" class="lane">运行时</text>
<rect x="48" y="190" width="320" height="168" rx="16" fill="#F5F8FB" stroke="#D5E0E9"/>
<text x="72" y="230" class="heading">应用声明</text>
<text x="72" y="268" class="body">@supacloud/app</text>
<text x="72" y="298" class="body">模块、Schema 与切面</text>
<text x="72" y="328" class="body">业务拥有的模块边界</text>
<rect x="440" y="190" width="320" height="168" rx="16" fill="#EDF8F5" stroke="#D5E0E9"/>
<text x="464" y="230" class="heading">静态编译器</text>
<text x="464" y="268" class="body">@supacloud/compiler</text>
<text x="464" y="298" class="body">静态分析与诊断</text>
<text x="464" y="328" class="body">显式依赖装配</text>
<rect x="832" y="190" width="320" height="168" rx="16" fill="#F5F8FB" stroke="#D5E0E9"/>
<text x="856" y="230" class="heading">生成产物</text>
<text x="856" y="268" class="body">工厂与路由契约</text>
<text x="856" y="298" class="body">类型化客户端与 OpenAPI</text>
<text x="856" y="328" class="body">运行时使用编译后的模块</text>
<rect x="48" y="442" width="320" height="168" rx="16" fill="#F5F8FB" stroke="#D5E0E9"/>
<text x="72" y="482" class="heading">应用服务</text>
<text x="72" y="520" class="body">业务规则</text>
<text x="72" y="550" class="body">授权与持久化</text>
<text x="72" y="580" class="body">业务验收测试</text>
<rect x="440" y="442" width="320" height="168" rx="16" fill="#F5F8FB" stroke="#D5E0E9"/>
<text x="464" y="482" class="heading">编译后的调用</text>
<text x="464" y="520" class="body">显式请求上下文</text>
<text x="464" y="550" class="body">生成的工厂</text>
<text x="464" y="580" class="body">声明的治理钩子</text>
<rect x="832" y="442" width="320" height="168" rx="16" fill="#EDF8F5" stroke="#D5E0E9"/>
<text x="856" y="482" class="heading">HTTP 宿主 / 适配器</text>
<text x="856" y="520" class="body">@supacloud/elysia</text>
<text x="856" y="550" class="body">宿主仍需安装 Elysia</text>
<text x="856" y="580" class="body">请求与响应校验</text>
<path d="M368 274 H430" fill="none" stroke="#526579" stroke-width="2" marker-end="url(#arrow)"/>
<path d="M760 274 H822" fill="none" stroke="#526579" stroke-width="2" marker-end="url(#arrow)"/>
<path d="M992 358 V432" fill="none" stroke="#526579" stroke-width="2" marker-end="url(#arrow)"/>
<path d="M832 526 H770" fill="none" stroke="#526579" stroke-width="2" marker-end="url(#arrow)"/>
<path d="M440 526 H378" fill="none" stroke="#526579" stroke-width="2" marker-end="url(#arrow)"/>
<text x="48" y="690" class="body">编译通过不等于业务正确，也不代表已支持任意 HTTP 框架。</text>
</svg>
