<!-- Generated by scripts/readme-diagrams.mjs; edit labels.json and the shared renderer. -->
<svg xmlns="http://www.w3.org/2000/svg" width="1200" height="760" viewBox="0 0 1200 760" role="img" aria-labelledby="title description" xml:lang="zh-CN">
<title id="title">每个项目绑定一个存储后端</title><desc id="description">Storage API 完成授权后按可信 projectRef 路由。未绑定项目保留平台存储，项目 A 和 B 分别使用具有独立 endpoint、凭据、物理桶和前缀的 S3 绑定。绑定故障不会回退到其他存储。</desc>
<defs><marker id="arrow" markerWidth="8" markerHeight="8" refX="7" refY="4" orient="auto"><path d="M0 0 L8 4 L0 8 Z" fill="#526579"/></marker></defs>
<style>text{font-family:Arial,"Noto Sans CJK SC","Microsoft YaHei",sans-serif;fill:#162B40}.title{font-size:34px;font-weight:700}.subtitle{font-size:21px;fill:#526579}.heading{font-size:23px;font-weight:700}.body{font-size:20px;fill:#334C63}.lane{font-size:16px;font-weight:700;fill:#37675F;letter-spacing:1px}</style>
<rect width="1200" height="760" fill="#FFFFFF"/>
<text x="48" y="40" class="lane">SUPACLOUD</text>
<text x="48" y="86" class="title">每个项目绑定一个存储后端</text>
<text x="48" y="124" class="subtitle">实现项目隔离，而非桶级来源选择或自动故障切换。</text>
<rect x="48" y="330" width="300" height="166" rx="16" fill="#F5F8FB" stroke="#D5E0E9"/>
<text x="72" y="370" class="heading">Storage API</text>
<text x="72" y="408" class="body">可信项目身份</text>
<text x="72" y="438" class="body">鉴权 / RLS</text>
<text x="72" y="468" class="body">逻辑桶 + 对象</text>
<rect x="412" y="312" width="306" height="202" rx="16" fill="#EDF8F5" stroke="#D5E0E9"/>
<text x="436" y="352" class="heading">项目级存储路由</text>
<text x="436" y="390" class="body">按 projectRef 解析</text>
<text x="436" y="420" class="body">每个项目一个后端</text>
<text x="436" y="450" class="body">每次操作使用不可变客户端</text>
<rect x="814" y="170" width="338" height="142" rx="16" fill="#F5F8FB" stroke="#D5E0E9"/>
<text x="838" y="210" class="heading">未绑定项目</text>
<text x="838" y="248" class="body">沿用平台存储驱动</text>
<text x="838" y="278" class="body">保留原有桶与对象路径布局</text>
<rect x="814" y="346" width="338" height="142" rx="16" fill="#F5F8FB" stroke="#D5E0E9"/>
<text x="838" y="386" class="heading">项目 A / S3 A</text>
<text x="838" y="424" class="body">独立 endpoint 与凭据</text>
<text x="838" y="454" class="body">物理桶 + 根前缀</text>
<rect x="814" y="522" width="338" height="142" rx="16" fill="#F5F8FB" stroke="#D5E0E9"/>
<text x="838" y="562" class="heading">项目 B / S3 B</text>
<text x="838" y="600" class="body">独立 endpoint 与凭据</text>
<text x="838" y="630" class="body">物理桶 + 根前缀</text>
<path d="M348 413 H402" fill="none" stroke="#526579" stroke-width="2" marker-end="url(#arrow)"/>
<path d="M718 413 H766 V241 H804" fill="none" stroke="#526579" stroke-width="2" marker-end="url(#arrow)"/>
<path d="M718 413 H766 V417 H804" fill="none" stroke="#526579" stroke-width="2" marker-end="url(#arrow)"/>
<path d="M718 413 H766 V593 H804" fill="none" stroke="#526579" stroke-width="2" marker-end="url(#arrow)"/>
<text x="48" y="730" class="body">已绑定后端发生故障时返回错误，不会回退到平台存储。</text>
</svg>
